<svg width="1440" height="820" viewBox="0 0 1440 820" fill="none" xmlns="http://www.w3.org/2000/svg">
<g clip-path="url(#clip0_1_3)">
<path d="M271.672 673.84C259.379 690.963 244.342 710.943 221.436 712.503C215.612 712.898 209.752 712.113 204.243 710.187C198.597 708.213 193.632 704.91 189.042 701.131C184.634 697.501 180.512 693.538 176 690.036C171.553 686.581 166.763 683.755 161.447 681.854C150.635 677.991 138.913 677.926 127.575 678.133C116.011 678.342 104.323 678.92 92.919 676.565C73.1166 672.477 55.9314 661.131 39.6493 649.675C23.0923 638.023 6.70022 625.559 -12.3379 618.186C-14.6438 617.294 -16.9784 616.488 -19.3418 615.765C-19.2371 616.563 -19.1324 617.359 -19.0304 618.157C-18.151 617.723 -17.2715 617.288 -16.3921 616.854C-14.8819 616.108 -16.2063 613.849 -17.7139 614.595C-18.5933 615.03 -19.4727 615.464 -20.3521 615.899C-21.4068 616.419 -21.0509 617.982 -20.0406 618.291C-0.193731 624.355 16.8422 636.698 33.5693 648.57C50.0373 660.256 67.0261 672.291 86.7369 677.761C97.6406 680.787 108.84 681.111 120.086 680.904C131.875 680.687 143.959 679.97 155.517 682.812C161.183 684.207 166.499 686.524 171.315 689.827C176.128 693.13 180.381 697.16 184.794 700.961C189.199 704.756 193.821 708.404 199.11 710.896C204.405 713.39 210.147 714.827 215.992 715.154C227.217 715.78 237.998 711.924 246.96 705.297C255.68 698.848 262.661 690.418 269.107 681.776C270.738 679.59 272.337 677.379 273.928 675.165C274.915 673.791 272.646 672.482 271.672 673.84Z" fill="white"/>
<path d="M274.926 693.844C254.118 718.551 220.625 730.023 189.084 722.849C172.773 719.138 158.454 710.83 146.383 699.364C134.916 688.468 125.036 675.759 111.902 666.724C83.552 647.22 47.3993 647.45 14.4581 649.238C-3.69803 650.222 -21.7992 651.29 -39.9894 650.562C-57.4493 649.863 -74.8569 647.913 -92.042 644.752C-126.145 638.475 -159.38 627.433 -190.408 611.939C-194.224 610.033 -198.003 608.055 -201.754 606.021C-201.939 605.922 -202.104 606.202 -201.919 606.304C-171.404 622.869 -138.585 635.083 -104.673 642.537C-70.0751 650.141 -34.9485 652.276 0.371872 650.361C35.5535 648.45 73.7031 645.066 105.634 663.19C120.296 671.513 130.972 684.493 142.724 696.252C154.002 707.538 166.795 716.515 182.137 721.318C211.736 730.58 244.505 723.2 267.359 702.24C270.139 699.691 272.73 696.959 275.159 694.075C275.292 693.915 275.062 693.682 274.926 693.844Z" fill="white"/>
<path d="M675.233 265.594C657.983 248.676 634.329 238.674 610.188 237.893C586.345 237.119 563.994 246.264 542.797 256.196C521.482 266.183 500.066 277.691 476.464 281.056C463.998 282.834 451.38 281.93 439.3 278.347C426.887 274.667 415.309 268.458 404.888 260.828C382.627 244.527 366.199 221.834 350.889 199.224C349.017 196.46 347.157 193.686 345.296 190.912C345.184 190.747 344.914 190.902 345.027 191.07C360.144 213.605 375.537 236.607 396.304 254.409C415.165 270.575 438.863 282.407 464.14 282.287C487.475 282.177 509.251 272.43 529.949 262.628C551.588 252.381 573.639 241.064 597.817 238.62C622.884 236.085 648.783 243.985 668.332 259.842C670.654 261.724 672.876 263.722 675.008 265.814C675.155 265.956 675.375 265.736 675.233 265.594Z" fill="white"/>
<path d="M666.572 266.338C644.633 273.404 622.859 260.254 606.016 247.423C597.248 240.744 588.754 233.646 579.339 227.871C569.874 222.064 559.503 217.987 548.495 216.339C537.452 214.686 526.094 215.26 515.311 218.201C504.293 221.207 494.293 226.835 484.628 232.777C465.965 244.247 444.351 259.123 421.244 253.235C411.649 250.791 402.903 244.884 397.181 236.784C391.046 228.103 388.487 217.053 390.005 206.539C390.382 203.923 391.026 201.356 391.88 198.854C392.402 197.331 389.99 196.677 389.474 198.19C385.976 208.422 386.378 219.854 390.527 229.836C394.422 239.209 401.633 246.963 410.573 251.74C420.126 256.843 430.961 258.004 441.543 256.022C453.2 253.837 463.941 248.312 474.017 242.252C483.979 236.26 493.629 229.644 504.258 224.848C514.906 220.044 526.468 217.657 538.151 217.924C549.743 218.191 561.208 221.048 571.534 226.331C581.686 231.524 590.662 238.642 599.625 245.613C616.535 258.76 636.621 273.214 659.321 270.468C662.015 270.141 664.657 269.571 667.238 268.74C668.759 268.255 668.107 265.844 666.572 266.338Z" fill="white"/>
<path fill-rule="evenodd" clip-rule="evenodd" d="M839.733 379.367C885.718 482.789 842.293 620.431 758.288 695.425C681.145 764.293 564.386 712.221 461.319 717.188C378.478 721.18 298.293 754.245 221.996 721.27C125.09 679.388 13.1853 620.741 -4.17284 516.006C-21.5472 411.174 71.1093 325.326 143.621 248.372C204.145 184.14 277.247 123.799 365.263 123.937C445.144 124.062 489.277 211.056 559.804 249.024C654.061 299.767 796.047 281.115 839.733 379.367Z" stroke="white" stroke-width="5"/>
<g filter="url(#filter0_dddddd_1_3)">
<path fill-rule="evenodd" clip-rule="evenodd" d="M304.948 153.437C182.142 146.162 110.265 231.463 23.335 283.874C-63.034 335.946 -195.455 379.064 -190.885 452.377C-186.35 525.128 -50.4951 562.597 43.5861 608.762C123.706 648.076 202.298 687.237 304.948 695.678C425.16 705.562 550.604 700.586 649.589 658.591C766.529 608.978 906.221 536.524 878.422 452.377C850.662 368.344 643.768 370.498 535.827 314.231C443.26 265.977 427.12 160.673 304.948 153.437Z" fill="url(#paint0_linear_1_3)"/>
</g>
<path fill-rule="evenodd" clip-rule="evenodd" d="M539.465 256.344C575.388 227.338 625.64 229.442 669.469 246.345C704.871 259.998 717.02 307.444 745.556 335.823C783.144 373.205 850.284 380.898 859.715 435.547C869.276 490.951 823.606 534.835 785.455 567.026C750.711 596.341 707.163 602.962 662.567 601.893C613.637 600.721 559.815 601.25 523.855 560.759C486.586 518.794 478.612 455.509 481.557 398.076C484.388 342.869 500.895 287.488 539.465 256.344Z" stroke="#32CEFF" stroke-width="10"/>
<path fill-rule="evenodd" clip-rule="evenodd" d="M649.439 217.316C711.335 212.453 760 264.665 803.174 309.232C845.396 352.815 899.473 403.384 887.241 462.787C875.374 520.415 801.588 534.28 750.724 563.952C718.395 582.811 686.831 599.652 649.439 601.51C609.603 603.489 567.88 600.415 537.548 574.546C505.171 546.931 490.181 505.177 486.792 462.787C483.068 416.21 492.309 370.594 518.127 331.629C551.439 281.354 589.265 222.044 649.439 217.316Z" stroke="white" stroke-width="10"/>
</g>
<defs>
<filter id="filter0_dddddd_1_3" x="-5598.92" y="-5254.92" width="11888.8" height="11362.8" filterUnits="userSpaceOnUse" color-interpolation-filters="sRGB">
<feFlood flood-opacity="0" result="BackgroundImageFix"/>
<feColorMatrix in="SourceAlpha" type="matrix" values="0 0 0 0 0 0 0 0 0 0 0 0 0 0 0 0 0 0 127 0" result="hardAlpha"/>
<feOffset/>
<feGaussianBlur stdDeviation="64.38"/>
<feColorMatrix type="matrix" values="0 0 0 0 0 0 0 0 0 0.701961 0 0 0 0 1 0 0 0 1 0"/>
<feBlend mode="normal" in2="BackgroundImageFix" result="effect1_dropShadow_1_3"/>
<feColorMatrix in="SourceAlpha" type="matrix" values="0 0 0 0 0 0 0 0 0 0 0 0 0 0 0 0 0 0 127 0" result="hardAlpha"/>
<feOffset/>
<feGaussianBlur stdDeviation="128.76"/>
<feColorMatrix type="matrix" values="0 0 0 0 0 0 0 0 0 0.701961 0 0 0 0 1 0 0 0 1 0"/>
<feBlend mode="normal" in2="effect1_dropShadow_1_3" result="effect2_dropShadow_1_3"/>
<feColorMatrix in="SourceAlpha" type="matrix" values="0 0 0 0 0 0 0 0 0 0 0 0 0 0 0 0 0 0 127 0" result="hardAlpha"/>
<feOffset/>
<feGaussianBlur stdDeviation="450.66"/>
<feColorMatrix type="matrix" values="0 0 0 0 0 0 0 0 0 0.701961 0 0 0 0 1 0 0 0 1 0"/>
<feBlend mode="normal" in2="effect2_dropShadow_1_3" result="effect3_dropShadow_1_3"/>
<feColorMatrix in="SourceAlpha" type="matrix" values="0 0 0 0 0 0 0 0 0 0 0 0 0 0 0 0 0 0 127 0" result="hardAlpha"/>
<feOffset/>
<feGaussianBlur stdDeviation="901.32"/>
<feColorMatrix type="matrix" values="0 0 0 0 0 0 0 0 0 0.701961 0 0 0 0 1 0 0 0 1 0"/>
<feBlend mode="normal" in2="effect3_dropShadow_1_3" result="effect4_dropShadow_1_3"/>
<feColorMatrix in="SourceAlpha" type="matrix" values="0 0 0 0 0 0 0 0 0 0 0 0 0 0 0 0 0 0 127 0" result="hardAlpha"/>
<feOffset/>
<feGaussianBlur stdDeviation="1545.12"/>
<feColorMatrix type="matrix" values="0 0 0 0 0 0 0 0 0 0.701961 0 0 0 0 1 0 0 0 1 0"/>
<feBlend mode="normal" in2="effect4_dropShadow_1_3" result="effect5_dropShadow_1_3"/>
<feColorMatrix in="SourceAlpha" type="matrix" values="0 0 0 0 0 0 0 0 0 0 0 0 0 0 0 0 0 0 127 0" result="hardAlpha"/>
<feOffset/>
<feGaussianBlur stdDeviation="2703.96"/>
<feColorMatrix type="matrix" values="0 0 0 0 0 0 0 0 0 0.701961 0 0 0 0 1 0 0 0 1 0"/>
<feBlend mode="normal" in2="effect5_dropShadow_1_3" result="effect6_dropShadow_1_3"/>
<feBlend mode="normal" in="SourceGraphic" in2="effect6_dropShadow_1_3" result="shape"/>
</filter>
<linearGradient id="paint0_linear_1_3" x1="345" y1="153" x2="882" y2="473.5" gradientUnits="userSpaceOnUse">
<stop stop-color="#0C4EAB"/>
<stop offset="1" stop-color="#149CFF"/>
</linearGradient>
<clipPath id="clip0_1_3">
<rect width="1440" height="820" fill="white"/>
</clipPath>
</defs>
</svg>
