<svg width="401" height="322" viewBox="0 0 401 322" fill="none" xmlns="http://www.w3.org/2000/svg">
<g clip-path="url(#clip0_1_6)" filter="url(#filter0_d_1_6)">
<path d="M2.34891 -40L1.89841 235.73M56.3574 -40L55.9069 235.73M110.366 -40L109.915 235.73M164.374 -40L163.924 235.73M218.383 -40L217.932 235.73M272.391 -40L271.941 235.73M326.4 -40L325.949 235.73M380.408 -40L379.958 235.73M434.417 -40L433.966 235.73M1.95632 54.2079L434.342 54.2079M1.95632 5.83543L434.342 5.83547M1.95632 102.58L434.342 102.58M1.95632 200.546L434.342 200.546M1.95632 152.293L434.342 152.293" stroke="url(#paint0_radial_1_6)" stroke-opacity="0.4" stroke-width="0.197232"/>
<path d="M-85.15 -81.6118L-85.5284 149.985M-39.7861 -81.6118L-40.1645 149.985M5.57767 -81.6118L5.19929 149.985M50.9415 -81.6118L50.5631 149.985M96.3054 -81.6118L95.927 149.985M141.669 -81.6118L141.291 149.985M187.033 -81.6118L186.655 149.985M232.397 -81.6118L232.018 149.985M277.761 -81.6118L277.382 149.985M-85.4797 -2.48288L277.698 -2.48285M-85.4797 -43.1128L277.698 -43.1128M-85.4797 38.1471L277.698 38.1471M-85.4797 120.432L277.698 120.432M-85.4797 79.9029L277.698 79.9029" stroke="url(#paint1_radial_1_6)" stroke-opacity="0.4" stroke-width="0.165663"/>
<path d="M176.874 -14.3604L175.911 -13.3987M176.874 -7.78905L175.911 -6.82739M176.874 -1.21769L175.911 -0.256025M176.874 5.35368L175.911 6.31534M176.874 11.925L175.911 12.8867M183.455 -14.3604L182.492 -13.3987M183.455 -7.78905L182.492 -6.82739M183.455 -1.21769L182.492 -0.256025M183.455 5.35368L182.492 6.31534M183.455 11.925L182.492 12.8867M190.036 -14.3604L189.073 -13.3987M190.036 -7.78905L189.073 -6.82739M190.036 -1.21769L189.073 -0.256025M190.036 5.35368L189.073 6.31534M190.036 11.925L189.073 12.8867M196.617 -14.3604L195.654 -13.3987M196.617 -7.78905L195.654 -6.82739M196.617 -1.21769L195.654 -0.256025M196.617 5.35368L195.654 6.31534M196.617 11.925L195.654 12.8867M203.198 -14.3604L202.235 -13.3987M203.198 -7.78905L202.235 -6.82739M203.198 -1.21769L202.235 -0.256025M203.198 5.35368L202.235 6.31534M203.198 11.925L202.235 12.8867M209.779 -14.3604L208.816 -13.3987M209.779 -7.78905L208.816 -6.82739M209.779 -1.21769L208.816 -0.256025M209.779 5.35368L208.816 6.31534M209.779 11.925L208.816 12.8867" stroke="url(#paint2_radial_1_6)" stroke-width="0.181598"/>
<path d="M141.445 250.334L143.099 251.991M152.745 250.334L154.398 251.991M164.044 250.334L165.698 251.991M175.344 250.334L176.998 251.991M186.644 250.334L188.297 251.991M141.445 239.007L143.099 240.664M152.745 239.007L154.398 240.664M164.044 239.007L165.698 240.664M175.344 239.007L176.998 240.664M186.644 239.007L188.297 240.664M141.445 227.68L143.099 229.337M152.745 227.68L154.398 229.337M164.044 227.68L165.698 229.337M175.344 227.68L176.998 229.337M186.644 227.68L188.297 229.337M141.445 216.352L143.099 218.01M152.745 216.352L154.398 218.01M164.044 216.352L165.698 218.01M175.344 216.352L176.997 218.01M186.644 216.352L188.297 218.01M141.445 205.025L143.099 206.683M152.745 205.025L154.398 206.683M164.044 205.025L165.698 206.683M175.344 205.025L176.997 206.683M186.644 205.025L188.297 206.683M141.445 193.698L143.099 195.356M152.745 193.698L154.398 195.356M164.044 193.698L165.698 195.356M175.344 193.698L176.997 195.356M186.644 193.698L188.297 195.356" stroke="url(#paint3_radial_1_6)" stroke-width="0.181598"/>
<path d="M434.336 174.211L432.81 172.682M423.912 174.211L422.387 172.682M413.488 174.211L411.963 172.682M403.065 174.211L401.539 172.682M392.641 174.211L391.116 172.682M434.336 184.656L432.81 183.127M423.912 184.656L422.387 183.127M413.488 184.656L411.963 183.127M403.065 184.656L401.539 183.127M392.641 184.656L391.116 183.127M434.336 195.101L432.81 193.572M423.912 195.101L422.387 193.572M413.488 195.101L411.963 193.572M403.065 195.101L401.539 193.572M392.641 195.101L391.116 193.572M434.336 205.546L432.81 204.017M423.912 205.546L422.387 204.017M413.488 205.546L411.963 204.017M403.065 205.546L401.539 204.017M392.641 205.546L391.116 204.017M434.336 215.99L432.81 214.462M423.912 215.99L422.387 214.462M413.488 215.99L411.963 214.462M403.065 215.99L401.539 214.462M392.641 215.99L391.116 214.462M434.336 226.435L432.81 224.907M423.912 226.435L422.387 224.907M413.488 226.435L411.963 224.907M403.065 226.435L401.539 224.907M392.641 226.435L391.116 224.907" stroke="url(#paint4_radial_1_6)" stroke-width="0.181598"/>
<path d="M78.1438 329.05C74.7887 340.699 70.6851 354.292 64.4335 355.353C62.8442 355.622 61.2449 355.088 59.7413 353.777C58.2005 352.435 56.8455 350.188 55.5926 347.616C54.3897 345.147 53.2647 342.451 52.0332 340.069C50.8196 337.718 49.5125 335.795 48.0617 334.502C45.1109 331.874 41.9116 331.83 38.8172 331.97C35.6614 332.113 32.4714 332.506 29.3591 330.904C23.9547 328.123 19.2646 320.404 14.821 312.61C10.3023 304.683 5.82861 296.204 0.632778 291.188C0.00347805 290.581 -0.63368 290.033 -1.27869 289.541C-1.25012 290.084 -1.22155 290.625 -1.1937 291.169C-0.953691 290.873 -0.71368 290.577 -0.473675 290.282C-0.0615227 289.774 -0.422963 288.238 -0.834401 288.745C-1.07441 289.041 -1.31441 289.336 -1.55441 289.632C-1.84228 289.986 -1.74514 291.049 -1.46942 291.259C3.94714 295.385 8.59653 303.782 13.1616 311.859C17.656 319.809 22.2926 327.996 27.672 331.718C30.6477 333.776 33.7042 333.997 36.7736 333.856C39.9908 333.708 43.2887 333.22 46.4431 335.154C47.9896 336.103 49.4403 337.679 50.7546 339.926C52.0682 342.173 53.229 344.915 54.4333 347.501C55.6355 350.083 56.8969 352.565 58.3405 354.26C59.7856 355.957 61.3527 356.934 62.9478 357.157C66.0114 357.582 68.9536 354.96 71.3994 350.451C73.7794 346.064 75.6845 340.329 77.4438 334.449C77.8888 332.962 78.3253 331.458 78.7596 329.951C79.0288 329.017 78.4095 328.126 78.1438 329.05Z" fill="white"/>
<path d="M79.0318 342.659C73.3531 359.468 64.2122 367.272 55.6041 362.392C51.1526 359.867 47.2446 354.215 43.9503 346.415C40.8209 339.002 38.1244 330.356 34.54 324.209C26.8027 310.94 16.9361 311.097 7.94587 312.313C2.99076 312.982 -1.94936 313.709 -6.91376 313.214C-11.6789 312.739 -16.4297 311.412 -21.1198 309.261C-30.4271 304.991 -39.4974 297.479 -47.9654 286.938C-49.0069 285.642 -50.0383 284.296 -51.0619 282.912C-51.1126 282.844 -51.1576 283.035 -51.1069 283.104C-42.7789 294.374 -33.8222 302.684 -24.567 307.755C-15.1247 312.927 -5.538 314.38 4.1015 313.077C13.7031 311.777 24.1148 309.475 32.8293 321.805C36.8308 327.467 39.7445 336.297 42.9517 344.297C46.0296 351.975 49.5211 358.083 53.7083 361.35C61.7864 367.652 70.7294 362.63 76.9667 348.371C77.7253 346.637 78.4325 344.778 79.0954 342.816C79.1318 342.707 79.0689 342.549 79.0318 342.659Z" fill="white"/>
<path d="M188.282 51.3151C183.575 39.8058 177.119 33.0014 170.531 32.4697C164.023 31.9432 157.923 38.165 152.138 44.9218C146.321 51.716 140.476 59.5446 134.035 61.8343C130.633 63.0436 127.189 62.4287 123.892 59.9913C120.505 57.4877 117.345 53.2634 114.501 48.0726C108.425 36.9828 103.942 21.5446 99.7635 6.16257C99.2524 4.28228 98.7448 2.39519 98.2372 0.5081C98.2065 0.395996 98.1329 0.501305 98.1636 0.615108C102.289 15.9462 106.49 31.595 112.158 43.7056C117.305 54.7037 123.773 62.7532 130.672 62.6716C137.04 62.5969 142.983 55.9658 148.632 49.2973C154.538 42.3264 160.556 34.6269 167.154 32.964C173.995 31.24 181.064 36.6142 186.399 47.4017C187.033 48.6824 187.639 50.0412 188.221 51.4646C188.261 51.5614 188.321 51.4119 188.282 51.3151Z" fill="white"/>
<path d="M185.919 51.8213C179.931 56.6282 173.989 47.6819 169.392 38.953C166.999 34.4094 164.681 29.5804 162.111 25.6517C159.528 21.7009 156.698 18.9271 153.693 17.8061C150.679 16.6816 147.58 17.0723 144.637 19.0732C141.63 21.1183 138.901 24.9468 136.263 28.9893C131.17 36.7925 125.271 46.9124 118.965 42.9073C116.346 41.2444 113.959 37.2256 112.397 31.7155C110.723 25.8097 110.025 18.2919 110.439 11.1393C110.542 9.3592 110.718 7.61309 110.951 5.91114C111.093 4.87502 110.435 4.43 110.294 5.45933C109.339 12.42 109.449 20.1976 110.581 26.9885C111.644 33.3648 113.612 38.6405 116.052 41.8898C118.659 45.3617 121.617 46.1515 124.504 44.8028C127.686 43.3166 130.617 39.5577 133.367 35.4353C136.086 31.3588 138.72 26.8577 141.62 23.5947C144.526 20.3267 147.682 18.7029 150.87 18.8847C154.034 19.0664 157.163 21.0096 159.981 24.6037C162.752 28.1367 165.201 32.9792 167.648 37.7216C172.263 46.6662 177.745 56.4991 183.94 54.6307C184.675 54.4081 185.396 54.0209 186.1 53.4553C186.515 53.1257 186.338 51.4849 185.919 51.8213Z" fill="white"/>
<g filter="url(#filter1_d_1_6)">
<path fill-rule="evenodd" clip-rule="evenodd" d="M356.957 79.5253C376.286 122.996 358.033 180.85 322.724 212.371C290.3 241.318 241.223 219.431 197.902 221.519C163.082 223.197 129.379 237.094 97.3097 223.234C56.578 205.63 9.54209 180.98 2.24609 136.958C-5.05671 92.8946 33.8888 56.811 64.3669 24.4656C89.8066 -2.53251 120.533 -27.895 157.528 -27.8371C191.103 -27.7845 209.653 8.78078 239.297 24.7395C278.915 46.0678 338.595 38.2278 356.957 79.5253Z" stroke="white" stroke-width="2.1016" shape-rendering="crispEdges"/>
</g>
<g filter="url(#filter2_d_1_6)">
<path fill-rule="evenodd" clip-rule="evenodd" d="M132.176 -15.4379C80.5581 -18.4954 50.3467 17.3584 13.8082 39.3876C-22.4945 61.2746 -78.1536 79.398 -76.2329 110.213C-74.3268 140.792 -17.2241 156.541 22.3202 175.945C55.9961 192.469 89.0299 208.93 132.176 212.477C182.704 216.632 235.431 214.54 277.036 196.889C326.188 176.036 384.904 145.582 373.219 110.213C361.551 74.8921 274.589 75.7976 229.219 52.1472C190.311 31.8653 183.528 -12.3962 132.176 -15.4379Z" fill="url(#paint5_linear_1_6)"/>
</g>
</g>
<defs>
<filter id="filter0_d_1_6" x="0" y="0" width="401" height="322" filterUnits="userSpaceOnUse" color-interpolation-filters="sRGB">
<feFlood flood-opacity="0" result="BackgroundImageFix"/>
<feColorMatrix in="SourceAlpha" type="matrix" values="0 0 0 0 0 0 0 0 0 0 0 0 0 0 0 0 0 0 127 0" result="hardAlpha"/>
<feOffset dy="4"/>
<feGaussianBlur stdDeviation="2"/>
<feComposite in2="hardAlpha" operator="out"/>
<feColorMatrix type="matrix" values="0 0 0 0 0 0 0 0 0 0 0 0 0 0 0 0 0 0 0.25 0"/>
<feBlend mode="normal" in2="BackgroundImageFix" result="effect1_dropShadow_1_6"/>
<feBlend mode="normal" in="SourceGraphic" in2="effect1_dropShadow_1_6" result="shape"/>
</filter>
<filter id="filter1_d_1_6" x="-3.69887" y="-28.8879" width="373.556" height="267.263" filterUnits="userSpaceOnUse" color-interpolation-filters="sRGB">
<feFlood flood-opacity="0" result="BackgroundImageFix"/>
<feColorMatrix in="SourceAlpha" type="matrix" values="0 0 0 0 0 0 0 0 0 0 0 0 0 0 0 0 0 0 127 0" result="hardAlpha"/>
<feOffset dy="4"/>
<feGaussianBlur stdDeviation="2"/>
<feComposite in2="hardAlpha" operator="out"/>
<feColorMatrix type="matrix" values="0 0 0 0 0 0 0 0 0 0 0 0 0 0 0 0 0 0 0.25 0"/>
<feBlend mode="normal" in2="BackgroundImageFix" result="effect1_dropShadow_1_6"/>
<feBlend mode="normal" in="SourceGraphic" in2="effect1_dropShadow_1_6" result="shape"/>
</filter>
<filter id="filter2_d_1_6" x="-80.2813" y="-15.6214" width="459.004" height="237.916" filterUnits="userSpaceOnUse" color-interpolation-filters="sRGB">
<feFlood flood-opacity="0" result="BackgroundImageFix"/>
<feColorMatrix in="SourceAlpha" type="matrix" values="0 0 0 0 0 0 0 0 0 0 0 0 0 0 0 0 0 0 127 0" result="hardAlpha"/>
<feOffset dy="4"/>
<feGaussianBlur stdDeviation="2"/>
<feComposite in2="hardAlpha" operator="out"/>
<feColorMatrix type="matrix" values="0 0 0 0 0 0 0 0 0 0 0 0 0 0 0 0 0 0 0.25 0"/>
<feBlend mode="normal" in2="BackgroundImageFix" result="effect1_dropShadow_1_6"/>
<feBlend mode="normal" in="SourceGraphic" in2="effect1_dropShadow_1_6" result="shape"/>
</filter>
<radialGradient id="paint0_radial_1_6" cx="0" cy="0" r="1" gradientUnits="userSpaceOnUse" gradientTransform="translate(167.997 84.4992) rotate(133.526) scale(256.011 155.729)">
<stop stop-color="white"/>
<stop offset="1" stop-color="white" stop-opacity="0"/>
</radialGradient>
<radialGradient id="paint1_radial_1_6" cx="0" cy="0" r="1" gradientUnits="userSpaceOnUse" gradientTransform="translate(53.9847 22.96) rotate(133.526) scale(215.033 130.803)">
<stop stop-color="white"/>
<stop offset="1" stop-color="white" stop-opacity="0"/>
</radialGradient>
<radialGradient id="paint2_radial_1_6" cx="0" cy="0" r="1" gradientUnits="userSpaceOnUse" gradientTransform="translate(192.718 -0.864178) rotate(90) scale(17.8252 22.1566)">
<stop stop-color="white"/>
<stop offset="1" stop-color="white" stop-opacity="0"/>
</radialGradient>
<radialGradient id="paint3_radial_1_6" cx="0" cy="0" r="1" gradientUnits="userSpaceOnUse" gradientTransform="translate(164.871 222.845) scale(23.4261 29.1465)">
<stop stop-color="white"/>
<stop offset="1" stop-color="white"/>
</radialGradient>
<radialGradient id="paint4_radial_1_6" cx="0" cy="0" r="1" gradientUnits="userSpaceOnUse" gradientTransform="translate(412.726 199.559) rotate(179.538) scale(25.0443 31.1476)">
<stop stop-color="white"/>
<stop offset="1" stop-color="white" stop-opacity="0"/>
</radialGradient>
<linearGradient id="paint5_linear_1_6" x1="149.011" y1="-15.6214" x2="374.723" y2="119.091" gradientUnits="userSpaceOnUse">
<stop stop-color="#0C4EAB"/>
<stop offset="1" stop-color="#149CFF"/>
</linearGradient>
<clipPath id="clip0_1_6">
<rect width="393" height="314" fill="white" transform="translate(4)"/>
</clipPath>
</defs>
</svg>
