<svg width="11889" height="11363" viewBox="0 0 11889 11363" fill="none" xmlns="http://www.w3.org/2000/svg">
<path d="M5870.67 5928.84C5858.38 5945.96 5843.34 5965.94 5820.44 5967.5C5814.61 5967.9 5808.75 5967.11 5803.24 5965.19C5797.6 5963.21 5792.63 5959.91 5788.04 5956.13C5783.63 5952.5 5779.51 5948.54 5775 5945.04C5770.55 5941.58 5765.76 5938.75 5760.45 5936.85C5749.64 5932.99 5737.91 5932.93 5726.57 5933.13C5715.01 5933.34 5703.32 5933.92 5691.92 5931.56C5672.12 5927.48 5654.93 5916.13 5638.65 5904.67C5622.09 5893.02 5605.7 5880.56 5586.66 5873.19C5584.36 5872.29 5582.02 5871.49 5579.66 5870.77C5579.76 5871.56 5579.87 5872.36 5579.97 5873.16C5580.85 5872.72 5581.73 5872.29 5582.61 5871.85C5584.12 5871.11 5582.79 5868.85 5581.29 5869.6C5580.41 5870.03 5579.53 5870.46 5578.65 5870.9C5577.59 5871.42 5577.95 5872.98 5578.96 5873.29C5598.81 5879.36 5615.84 5891.7 5632.57 5903.57C5649.04 5915.26 5666.03 5927.29 5685.74 5932.76C5696.64 5935.79 5707.84 5936.11 5719.09 5935.9C5730.87 5935.69 5742.96 5934.97 5754.52 5937.81C5760.18 5939.21 5765.5 5941.52 5770.31 5944.83C5775.13 5948.13 5779.38 5952.16 5783.79 5955.96C5788.2 5959.76 5792.82 5963.4 5798.11 5965.9C5803.4 5968.39 5809.15 5969.83 5814.99 5970.15C5826.22 5970.78 5837 5966.92 5845.96 5960.3C5854.68 5953.85 5861.66 5945.42 5868.11 5936.78C5869.74 5934.59 5871.34 5932.38 5872.93 5930.16C5873.91 5928.79 5871.65 5927.48 5870.67 5928.84Z" fill="white"/>
<path d="M5873.93 5948.84C5853.12 5973.55 5819.62 5985.02 5788.08 5977.85C5771.77 5974.14 5757.45 5965.83 5745.38 5954.36C5733.92 5943.47 5724.04 5930.76 5710.9 5921.72C5682.55 5902.22 5646.4 5902.45 5613.46 5904.24C5595.3 5905.22 5577.2 5906.29 5559.01 5905.56C5541.55 5904.86 5524.14 5902.91 5506.96 5899.75C5472.85 5893.48 5439.62 5882.43 5408.59 5866.94C5404.78 5865.03 5401 5863.05 5397.25 5861.02C5397.06 5860.92 5396.9 5861.2 5397.08 5861.3C5427.6 5877.87 5460.41 5890.08 5494.33 5897.54C5528.92 5905.14 5564.05 5907.28 5599.37 5905.36C5634.55 5903.45 5672.7 5900.07 5704.63 5918.19C5719.3 5926.51 5729.97 5939.49 5741.72 5951.25C5753 5962.54 5765.79 5971.52 5781.14 5976.32C5810.74 5985.58 5843.5 5978.2 5866.36 5957.24C5869.14 5954.69 5871.73 5951.96 5874.16 5949.07C5874.29 5948.91 5874.06 5948.68 5873.93 5948.84Z" fill="white"/>
<path d="M6274.23 5520.59C6256.98 5503.68 6233.33 5493.67 6209.19 5492.89C6185.34 5492.12 6162.99 5501.26 6141.8 5511.2C6120.48 5521.18 6099.07 5532.69 6075.46 5536.06C6063 5537.83 6050.38 5536.93 6038.3 5533.35C6025.89 5529.67 6014.31 5523.46 6003.89 5515.83C5981.63 5499.53 5965.2 5476.83 5949.89 5454.22C5948.02 5451.46 5946.16 5448.69 5944.3 5445.91C5944.18 5445.75 5943.91 5445.9 5944.03 5446.07C5959.14 5468.6 5974.54 5491.61 5995.3 5509.41C6014.16 5525.58 6037.86 5537.41 6063.14 5537.29C6086.47 5537.18 6108.25 5527.43 6128.95 5517.63C6150.59 5507.38 6172.64 5496.06 6196.82 5493.62C6221.88 5491.09 6247.78 5498.98 6267.33 5514.84C6269.65 5516.72 6271.88 5518.72 6274.01 5520.81C6274.16 5520.96 6274.38 5520.74 6274.23 5520.59Z" fill="white"/>
<path d="M6265.57 5521.34C6243.63 5528.4 6221.86 5515.25 6205.02 5502.42C6196.25 5495.74 6187.75 5488.65 6178.34 5482.87C6168.87 5477.06 6158.5 5472.99 6147.49 5471.34C6136.45 5469.69 6125.09 5470.26 6114.31 5473.2C6103.29 5476.21 6093.29 5481.83 6083.63 5487.78C6064.97 5499.25 6043.35 5514.12 6020.24 5508.24C6010.65 5505.79 6001.9 5499.88 5996.18 5491.78C5990.05 5483.1 5987.49 5472.05 5989.01 5461.54C5989.38 5458.92 5990.03 5456.36 5990.88 5453.85C5991.4 5452.33 5988.99 5451.68 5988.47 5453.19C5984.98 5463.42 5985.38 5474.85 5989.53 5484.84C5993.42 5494.21 6000.63 5501.96 6009.57 5506.74C6019.13 5511.84 6029.96 5513 6040.54 5511.02C6052.2 5508.84 6062.94 5503.31 6073.02 5497.25C6082.98 5491.26 6092.63 5484.64 6103.26 5479.85C6113.91 5475.04 6125.47 5472.66 6137.15 5472.92C6148.74 5473.19 6160.21 5476.05 6170.53 5481.33C6180.69 5486.52 6189.66 5493.64 6198.62 5500.61C6215.53 5513.76 6235.62 5528.21 6258.32 5525.47C6261.02 5525.14 6263.66 5524.57 6266.24 5523.74C6267.76 5523.26 6267.11 5520.84 6265.57 5521.34Z" fill="white"/>
<path fill-rule="evenodd" clip-rule="evenodd" d="M6438.73 5634.37C6484.72 5737.79 6441.29 5875.43 6357.29 5950.43C6280.15 6019.29 6163.39 5967.22 6060.32 5972.19C5977.48 5976.18 5897.29 6009.24 5821 5976.27C5724.09 5934.39 5612.19 5875.74 5594.83 5771.01C5577.45 5666.17 5670.11 5580.33 5742.62 5503.37C5803.15 5439.14 5876.25 5378.8 5964.26 5378.94C6044.14 5379.06 6088.28 5466.06 6158.8 5504.02C6253.06 5554.77 6395.05 5536.11 6438.73 5634.37Z" stroke="white" stroke-width="5"/>
<g filter="url(#filter0_dddddd_178_549)">
<path fill-rule="evenodd" clip-rule="evenodd" d="M5903.95 5408.44C5781.14 5401.16 5709.27 5486.46 5622.34 5538.87C5535.97 5590.95 5403.55 5634.06 5408.12 5707.38C5412.65 5780.13 5548.5 5817.6 5642.59 5863.76C5722.71 5903.08 5801.3 5942.24 5903.95 5950.68C6024.16 5960.56 6149.6 5955.59 6248.59 5913.59C6365.53 5863.98 6505.22 5791.52 6477.42 5707.38C6449.66 5623.34 6242.77 5625.5 6134.83 5569.23C6042.26 5520.98 6026.12 5415.67 5903.95 5408.44Z" fill="url(#paint0_linear_178_549)"/>
</g>
<path fill-rule="evenodd" clip-rule="evenodd" d="M6138.47 5511.34C6174.39 5482.34 6224.64 5484.44 6268.47 5501.34C6303.87 5515 6316.02 5562.44 6344.56 5590.82C6382.14 5628.2 6449.28 5635.9 6458.71 5690.55C6468.28 5745.95 6422.61 5789.84 6384.45 5822.03C6349.71 5851.34 6306.16 5857.96 6261.57 5856.89C6212.64 5855.72 6158.82 5856.25 6122.85 5815.76C6085.59 5773.79 6077.61 5710.51 6080.56 5653.08C6083.39 5597.87 6099.9 5542.49 6138.47 5511.34Z" stroke="#32CEFF" stroke-width="10"/>
<path fill-rule="evenodd" clip-rule="evenodd" d="M6248.44 5472.32C6310.34 5467.45 6359 5519.67 6402.17 5564.23C6444.4 5607.81 6498.47 5658.38 6486.24 5717.79C6474.37 5775.42 6400.59 5789.28 6349.72 5818.95C6317.4 5837.81 6285.83 5854.65 6248.44 5856.51C6208.6 5858.49 6166.88 5855.42 6136.55 5829.55C6104.17 5801.93 6089.18 5760.18 6085.79 5717.79C6082.07 5671.21 6091.31 5625.59 6117.13 5586.63C6150.44 5536.35 6188.27 5477.04 6248.44 5472.32Z" stroke="white" stroke-width="10"/>
<defs>
<filter id="filter0_dddddd_178_549" x="0.0800781" y="0.0800781" width="11888.8" height="11362.8" filterUnits="userSpaceOnUse" color-interpolation-filters="sRGB">
<feFlood flood-opacity="0" result="BackgroundImageFix"/>
<feColorMatrix in="SourceAlpha" type="matrix" values="0 0 0 0 0 0 0 0 0 0 0 0 0 0 0 0 0 0 127 0" result="hardAlpha"/>
<feOffset/>
<feGaussianBlur stdDeviation="64.38"/>
<feColorMatrix type="matrix" values="0 0 0 0 0 0 0 0 0 0.701961 0 0 0 0 1 0 0 0 1 0"/>
<feBlend mode="normal" in2="BackgroundImageFix" result="effect1_dropShadow_178_549"/>
<feColorMatrix in="SourceAlpha" type="matrix" values="0 0 0 0 0 0 0 0 0 0 0 0 0 0 0 0 0 0 127 0" result="hardAlpha"/>
<feOffset/>
<feGaussianBlur stdDeviation="128.76"/>
<feColorMatrix type="matrix" values="0 0 0 0 0 0 0 0 0 0.701961 0 0 0 0 1 0 0 0 1 0"/>
<feBlend mode="normal" in2="effect1_dropShadow_178_549" result="effect2_dropShadow_178_549"/>
<feColorMatrix in="SourceAlpha" type="matrix" values="0 0 0 0 0 0 0 0 0 0 0 0 0 0 0 0 0 0 127 0" result="hardAlpha"/>
<feOffset/>
<feGaussianBlur stdDeviation="450.66"/>
<feColorMatrix type="matrix" values="0 0 0 0 0 0 0 0 0 0.701961 0 0 0 0 1 0 0 0 1 0"/>
<feBlend mode="normal" in2="effect2_dropShadow_178_549" result="effect3_dropShadow_178_549"/>
<feColorMatrix in="SourceAlpha" type="matrix" values="0 0 0 0 0 0 0 0 0 0 0 0 0 0 0 0 0 0 127 0" result="hardAlpha"/>
<feOffset/>
<feGaussianBlur stdDeviation="901.32"/>
<feColorMatrix type="matrix" values="0 0 0 0 0 0 0 0 0 0.701961 0 0 0 0 1 0 0 0 1 0"/>
<feBlend mode="normal" in2="effect3_dropShadow_178_549" result="effect4_dropShadow_178_549"/>
<feColorMatrix in="SourceAlpha" type="matrix" values="0 0 0 0 0 0 0 0 0 0 0 0 0 0 0 0 0 0 127 0" result="hardAlpha"/>
<feOffset/>
<feGaussianBlur stdDeviation="1545.12"/>
<feColorMatrix type="matrix" values="0 0 0 0 0 0 0 0 0 0.701961 0 0 0 0 1 0 0 0 1 0"/>
<feBlend mode="normal" in2="effect4_dropShadow_178_549" result="effect5_dropShadow_178_549"/>
<feColorMatrix in="SourceAlpha" type="matrix" values="0 0 0 0 0 0 0 0 0 0 0 0 0 0 0 0 0 0 127 0" result="hardAlpha"/>
<feOffset/>
<feGaussianBlur stdDeviation="2703.96"/>
<feColorMatrix type="matrix" values="0 0 0 0 0 0 0 0 0 0.701961 0 0 0 0 1 0 0 0 1 0"/>
<feBlend mode="normal" in2="effect5_dropShadow_178_549" result="effect6_dropShadow_178_549"/>
<feBlend mode="normal" in="SourceGraphic" in2="effect6_dropShadow_178_549" result="shape"/>
</filter>
<linearGradient id="paint0_linear_178_549" x1="5944" y1="5408" x2="6481" y2="5728.5" gradientUnits="userSpaceOnUse">
<stop stop-color="#0C4EAB"/>
<stop offset="1" stop-color="#149CFF"/>
</linearGradient>
</defs>
</svg>
