<svg width="1031" height="656" viewBox="0 0 1031 656" fill="none" xmlns="http://www.w3.org/2000/svg">
<path d="M2.0718 0L1 656M130.565 0L129.494 656M259.059 0L257.987 656M387.552 0L386.48 656M516.046 0L514.974 656M644.539 0L643.467 656M773.033 0L771.961 656M901.526 0L900.454 656M1030.02 0L1028.95 656M1.13779 224.133L1029.84 224.133M1.13779 109.049L1029.84 109.049M1.13779 339.218L1029.84 339.218M1.13779 572.292L1029.84 572.292M1.13779 457.492L1029.84 457.492" stroke="url(#paint0_radial_0_6)" stroke-opacity="0.4" stroke-width="0.469242"/>
<defs>
<radialGradient id="paint0_radial_0_6" cx="0" cy="0" r="1" gradientUnits="userSpaceOnUse" gradientTransform="translate(396.172 296.2) rotate(133.526) scale(609.084 370.5)">
<stop stop-color="white"/>
<stop offset="1" stop-color="white" stop-opacity="0"/>
</radialGradient>
</defs>
</svg>
